<?xml version="1.0" encoding="UTF-8" standalone="no"?>
<!-- Created with Inkscape (http://www.inkscape.org/) -->

<svg
   width="40.639999mm"
   height="128.5mm"
   viewBox="0 0 40.640004 128.50002"
   version="1.1"
   id="svg8"
   inkscape:version="1.4 (e7c3feb1, 2024-10-09)"
   sodipodi:docname="Distroi.svg"
   xmlns:inkscape="http://www.inkscape.org/namespaces/inkscape"
   xmlns:sodipodi="http://sodipodi.sourceforge.net/DTD/sodipodi-0.dtd"
   xmlns="http://www.w3.org/2000/svg"
   xmlns:svg="http://www.w3.org/2000/svg"
   xmlns:rdf="http://www.w3.org/1999/02/22-rdf-syntax-ns#"
   xmlns:cc="http://creativecommons.org/ns#"
   xmlns:dc="http://purl.org/dc/elements/1.1/">
  <defs
     id="defs2" />
  <sodipodi:namedview
     id="base"
     pagecolor="#ffffff"
     bordercolor="#666666"
     borderopacity="1.0"
     inkscape:pageopacity="0.0"
     inkscape:pageshadow="2"
     inkscape:zoom="0.36873687"
     inkscape:cx="47.459318"
     inkscape:cy="379.67454"
     inkscape:document-units="mm"
     inkscape:current-layer="svg8"
     showgrid="true"
     units="mm"
     inkscape:snap-bbox="true"
     inkscape:snap-page="true"
     inkscape:bbox-nodes="false"
     inkscape:snap-bbox-edge-midpoints="false"
     inkscape:window-width="1440"
     inkscape:window-height="847"
     inkscape:window-x="0"
     inkscape:window-y="25"
     inkscape:window-maximized="0"
     inkscape:snap-bbox-midpoints="true"
     inkscape:snap-nodes="false"
     inkscape:showpageshadow="2"
     inkscape:pagecheckerboard="0"
     inkscape:deskcolor="#d1d1d1">
    <inkscape:grid
       id="grid1"
       units="mm"
       originx="0"
       originy="0"
       spacingx="5.0800006"
       spacingy="5.0800002"
       empcolor="#0099e5"
       empopacity="0.30196078"
       color="#f199e5"
       opacity="0.14901961"
       empspacing="2"
       enabled="true"
       visible="true" />
  </sodipodi:namedview>
  <metadata
     id="metadata5">
    <rdf:RDF>
      <cc:Work
         rdf:about="">
        <dc:format>image/svg+xml</dc:format>
        <dc:type
           rdf:resource="http://purl.org/dc/dcmitype/StillImage" />
      </cc:Work>
    </rdf:RDF>
  </metadata>
  <g
     inkscape:label="Layer 1"
     inkscape:groupmode="layer"
     id="layer1"
     transform="translate(0,-168.49998)">
    <rect
       style="display:inline;opacity:1;vector-effect:none;fill:#e6e6e6;fill-opacity:1;fill-rule:evenodd;stroke:none;stroke-width:0.749813;stroke-linecap:butt;stroke-linejoin:miter;stroke-miterlimit:4;stroke-dasharray:none;stroke-dashoffset:0;stroke-opacity:1;paint-order:normal"
       id="rect420"
       width="40.639999"
       height="128.5"
       x="5.9211732e-17"
       y="168.49997" />
  </g>
  <path
     id="path1"
     style="fill:#00a4e9;fill-opacity:1"
     inkscape:label="Azul"
     d="M 198.48323 8.7257169 L 194.52275 8.7479377 C 192.34459 8.7600167 189.69954 8.8105724 188.64456 8.8605924 C 187.58957 8.9106124 185.36658 8.9463573 183.70481 8.9396573 L 180.68329 8.9272549 L 180.60577 9.0497281 C 180.49834 9.2192451 180.50632 9.273258 180.65797 9.424899 L 180.78974 9.5571907 L 183.71308 9.5654589 C 185.3211 9.5701689 187.52008 9.5332834 188.5996 9.4832934 C 189.67912 9.4333064 192.32216 9.378327 194.47263 9.361337 L 198.38246 9.3308479 L 198.53026 9.1825365 L 198.67805 9.0347419 L 198.5809 8.8802294 L 198.48323 8.7257169 z M 187.35058 24.37179 L 186.69791 24.511317 C 186.33896 24.588059 185.81723 24.651541 185.53829 24.652393 C 184.29583 24.656188 183.41542 24.993634 182.10956 25.965491 L 181.23312 26.617648 L 180.89309 27.143714 C 180.70608 27.433047 180.50134 27.854092 180.43834 28.079058 L 180.32414 28.487818 L 180.37064 29.401974 L 180.41767 30.31613 L 180.64505 30.963636 C 181.09411 32.243029 181.90638 33.017113 183.2914 33.485963 L 183.87121 33.682333 L 186.10156 33.806357 C 187.32828 33.874417 188.5933 33.967145 188.91224 34.012545 L 189.49205 34.095228 L 191.36532 34.056987 C 197.00102 33.942537 200.31229 33.835878 201.02571 33.745378 L 201.67477 33.663213 L 202.01997 33.486996 C 202.20962 33.390246 202.50813 33.143579 202.68349 32.938709 L 203.00234 32.566122 L 203.14962 32.122738 L 203.29689 31.679355 L 203.24728 31.310385 L 203.19767 30.940898 L 203.46846 30.391061 L 203.73873 29.841224 L 203.81521 29.052642 C 203.85732 28.618996 203.93349 28.070268 203.98419 27.833078 L 204.07617 27.402096 L 203.98316 26.985584 C 203.71356 25.778118 202.92167 25.170918 201.22415 24.870468 L 200.37614 24.720089 L 198.01194 24.773833 L 195.64775 24.82706 L 193.87421 24.661178 C 192.89882 24.569936 192.02513 24.515062 191.93273 24.539222 C 191.84032 24.563382 190.77159 24.535807 189.55768 24.477727 L 187.35058 24.37179 z M 192.70374 46.664486 L 189.93802 46.668621 L 187.1723 46.672755 L 186.59249 46.803496 C 185.50568 47.048156 183.96136 47.499299 183.51257 47.703699 L 183.06505 47.907821 L 182.52348 48.409083 L 181.98192 48.910344 L 181.70751 49.427108 C 181.55643 49.711308 181.32464 50.319584 181.19282 50.778964 L 180.95304 51.614572 L 180.98559 52.259494 L 181.01867 52.904416 L 181.57367 54.03768 L 182.12919 55.171461 L 182.57878 55.646884 L 183.02888 56.122307 L 183.54358 56.353301 C 183.82671 56.480361 184.53572 56.707223 185.11919 56.857663 L 186.18011 57.131548 L 187.3449 57.225082 C 187.98556 57.276452 188.52984 57.339759 188.55464 57.366159 C 188.63045 57.446999 191.87713 57.319748 192.25777 57.220948 C 192.7784 57.085878 194.02816 56.950263 195.60331 56.857663 L 196.98617 56.776531 L 197.73806 56.549671 L 198.48944 56.322812 L 199.12402 56.322812 L 199.75913 56.322812 L 200.29088 56.190003 C 201.66539 55.845853 203.01149 54.964641 203.94543 53.797901 L 204.53093 53.06668 L 204.66167 52.626396 C 204.73361 52.384416 204.79241 52.014801 204.79241 51.804741 L 204.79241 51.422852 L 204.61361 50.943812 C 204.51507 50.680462 204.29403 50.301149 204.12268 50.100969 C 203.95134 49.900789 203.81107 49.674874 203.81107 49.598674 C 203.81107 49.321544 203.45153 48.508838 203.18682 48.187908 L 202.91552 47.858729 L 202.40392 47.608098 L 201.89285 47.357984 L 200.2423 47.292355 C 196.69533 47.151775 195.18476 47.072371 195.10256 47.021571 C 195.05545 46.992451 194.49642 46.899915 193.86026 46.816415 L 192.70374 46.664486 z M 192.1074 51.62284 C 192.1718 51.59704 192.24823 51.599958 192.27793 51.629558 C 192.30757 51.659258 192.25524 51.680584 192.16114 51.676584 L 191.99009 51.669866 L 192.1074 51.62284 z M 196.80788 68.964417 L 196.08958 69.067253 C 195.69448 69.123873 195.08348 69.170089 194.73204 69.170089 C 194.04862 69.170089 192.88716 69.274769 191.232 69.484799 C 190.66771 69.556399 189.82436 69.617775 189.35821 69.622775 L 188.51072 69.631043 L 188.19911 69.534408 C 187.7304 69.389148 186.85094 69.417519 185.98426 69.606239 C 185.55814 69.699029 184.8722 69.837847 184.4598 69.914747 L 183.70998 70.05479 L 183.21078 70.298186 L 182.71159 70.541582 L 182.26097 71.001502 L 181.80983 71.461939 L 181.476 72.13735 L 181.14217 72.812761 L 181.04554 73.33366 L 180.94942 73.854041 L 181.05381 74.355819 L 181.15819 74.857598 L 181.43518 75.292713 C 181.58737 75.531913 181.80169 76.018157 181.91164 76.373267 C 182.35803 77.814977 183.32976 78.768785 184.56005 78.973625 L 184.56005 78.974142 C 185.24485 79.088222 186.4662 79.087679 187.08341 78.973109 L 187.61826 78.873373 L 189.62589 78.888359 L 191.63301 78.903345 L 192.09654 78.813428 L 192.55956 78.722995 L 194.40648 78.804127 L 196.25391 78.884742 L 198.01608 78.760718 L 199.77825 78.636695 L 200.31465 78.497685 C 200.60965 78.421235 201.19719 78.213942 201.62051 78.036732 L 202.39049 77.714271 L 202.7884 77.316362 L 203.18682 76.917937 L 203.50773 76.250277 L 203.82864 75.583135 L 203.87515 74.896872 L 203.92115 74.211125 L 203.50567 72.962106 C 202.9086 71.167476 202.76825 70.991432 201.312 70.209302 L 200.55288 69.801575 L 199.34933 69.525107 C 198.6875 69.373117 197.84511 69.184827 197.47709 69.106527 L 196.80788 68.964417 z M 196.09423 91.483456 L 192.88203 91.509811 C 184.45845 91.578551 183.1836 91.760238 181.86513 93.078708 L 181.33854 93.60529 L 180.98043 94.34633 C 180.78337 94.75386 180.57577 95.302911 180.51947 95.566411 L 180.41715 96.045452 L 180.47555 96.40977 C 180.50762 96.61033 180.62054 96.956849 180.7267 97.179749 L 180.91996 97.584892 L 180.9303 98.299061 L 180.94064 99.012712 L 181.14476 99.437493 L 181.3494 99.862273 L 181.79381 100.26173 L 182.23823 100.66119 L 182.7984 100.83431 C 183.1065 100.92947 183.93534 101.09278 184.64067 101.19708 L 185.92328 101.38673 L 186.86017 101.28751 L 187.79706 101.18881 L 189.49205 101.19552 C 190.42436 101.19912 191.34784 101.20871 191.54412 101.21671 C 191.7404 101.22464 192.81519 101.17774 193.93261 101.11284 L 195.96401 100.99502 L 196.32058 101.15573 C 196.5167 101.24417 196.82688 101.34468 197.00994 101.37898 L 197.01046 101.37846 C 197.19353 101.41316 197.42344 101.42882 197.52154 101.41412 C 197.61968 101.39941 198.10158 101.34316 198.59227 101.28906 C 200.33448 101.09703 200.90436 101.00338 201.35489 100.83482 L 201.8112 100.66429 L 202.16001 100.30669 L 202.50934 99.949089 L 202.83542 99.302617 C 203.01487 98.946897 203.28856 98.41467 203.44314 98.12026 L 203.72374 97.584892 L 203.85345 96.843852 L 203.98316 96.102812 L 203.89841 95.655294 C 203.76911 94.973504 203.58831 94.668503 202.776 93.761353 L 202.02875 92.927296 L 201.64893 92.737643 C 201.06656 92.447063 200.1827 92.104736 199.40876 91.869996 L 198.70854 91.657606 L 197.40165 91.570273 L 196.09423 91.483456 z M 193.95276 113.80251 L 191.99009 113.82008 C 189.34413 113.84412 185.18001 114.12067 184.49597 114.31772 C 184.29969 114.37426 183.8178 114.58569 183.42524 114.78746 L 182.71159 115.15436 L 181.76642 116.09436 L 180.82126 117.03487 L 180.60836 117.48084 L 180.39597 117.9268 L 180.36238 118.56759 L 180.32827 119.20786 L 180.56443 119.68277 C 181.03448 120.62751 181.39426 121.19784 181.91422 121.82424 L 182.4439 122.46244 L 182.9493 122.79007 L 183.45469 123.11822 L 184.01952 123.27583 C 184.33044 123.3626 184.92638 123.54695 185.34347 123.68562 C 186.20128 123.97081 186.91328 124.10779 188.06992 124.21014 C 188.50868 124.24904 188.88774 124.28579 188.91224 124.29179 C 188.93678 124.29779 189.31812 124.25952 189.75974 124.20652 C 190.57899 124.10828 191.70012 124.04416 195.64775 123.86959 C 197.86051 123.77173 198.52567 123.71428 200.33273 123.46703 L 201.27066 123.33888 L 201.86081 123.11718 C 202.639 122.82427 203.05174 122.5534 203.57181 121.99581 L 204.00124 121.53537 L 204.26893 120.96331 L 204.53661 120.39125 L 204.58364 119.91738 L 204.63015 119.44351 L 204.52473 119.04198 C 204.46694 118.82117 204.38783 118.40002 204.34903 118.1056 C 204.15453 116.63044 203.65797 115.86747 202.40806 115.12491 L 201.78898 114.75697 L 200.91513 114.53528 L 200.04128 114.31359 L 198.78657 114.21902 C 198.09665 114.16709 197.50621 114.10891 197.47451 114.08931 C 197.4428 114.06971 196.63758 113.99718 195.68496 113.92808 L 193.95276 113.80251 z "
     transform="translate(-178.14184,0.27115)" />
  <path
     id="path2"
     style="fill:#ff4253;fill-opacity:1"
     inkscape:label="Rojo"
     d="M 211.79973 24.204875 L 211.05921 24.303577 L 210.31817 24.402796 L 209.31306 24.858065 C 208.76025 25.108473 208.11012 25.461911 207.86819 25.643547 L 207.42842 25.97376 L 207.05119 26.534966 C 206.8437 26.843685 206.61274 27.302141 206.53804 27.553508 L 206.40213 28.010328 L 206.40213 28.95704 L 206.40213 29.903236 L 206.53701 30.421033 C 206.71118 31.08973 207.03753 31.63939 207.47958 32.009567 C 207.67377 32.172186 208.09519 32.539369 208.41648 32.825538 L 209.00094 33.345919 L 209.57248 33.613087 L 210.14402 33.880771 L 210.74864 33.941232 C 211.98648 34.065684 212.58372 33.896251 213.89676 33.046196 L 214.65486 32.55527 L 215.19022 31.980111 C 215.48463 31.663816 215.81918 31.214766 215.93385 30.982239 L 216.14262 30.559526 L 216.27388 29.826238 L 216.40514 29.093466 L 216.34571 28.424256 C 216.21214 26.909069 215.39287 25.805727 213.63011 24.767115 L 213.14074 24.47876 L 212.47049 24.341818 L 211.79973 24.204875 z M 211.15946 46.891863 L 210.4701 47.068079 C 210.09109 47.165013 209.5329 47.374441 209.22935 47.533167 L 208.67744 47.821522 L 208.05268 48.449907 L 207.42842 49.077776 L 207.13955 49.657585 L 206.85068 50.237395 L 206.74319 50.878699 L 206.63571 51.520004 L 206.78815 52.395403 L 206.94112 53.270801 L 207.20622 53.815471 L 207.47132 54.360141 L 208.22062 55.079477 C 209.0706 55.895496 209.32196 56.04818 210.09286 56.215841 C 211.4588 56.512916 212.29793 56.324716 213.7252 55.401421 C 215.23306 54.425993 215.59232 53.812636 215.80983 51.843498 L 215.92816 50.772763 L 215.85685 50.259099 C 215.81755 49.976536 215.70126 49.571754 215.59847 49.359412 L 215.4114 48.973389 L 214.55667 48.178089 C 213.40507 47.106846 212.93789 46.896613 211.70258 46.893413 L 211.15946 46.891863 z M 211.71085 69.355091 L 211.03234 69.410385 C 209.91705 69.501515 209.35645 69.746166 208.22528 70.635116 C 207.57383 71.147066 207.27903 71.513154 206.95817 72.208664 L 206.72201 72.72026 L 206.68583 73.580673 L 206.65018 74.441086 L 206.76076 74.785251 C 206.82181 74.974391 207.09403 75.521991 207.36538 76.002231 L 207.85889 76.875562 L 208.44077 77.419715 L 209.02316 77.964385 L 209.49393 78.179875 L 209.9647 78.395366 L 210.52539 78.472364 C 210.83386 78.514664 211.4488 78.542376 211.89172 78.534376 L 212.69684 78.51939 L 213.29577 78.224317 L 213.8947 77.929245 L 214.58716 77.242465 L 215.27911 76.556202 L 215.584 75.936085 L 215.88837 75.315451 L 215.92713 74.687065 L 215.96537 74.05868 L 215.73541 73.136256 L 215.50493 72.214348 L 215.2605 71.764763 C 215.12603 71.517703 214.76186 71.040929 214.45073 70.704879 L 213.88488 70.093547 L 213.33297 69.82328 C 213.0295 69.6746 212.54064 69.50881 212.24622 69.45431 L 211.71085 69.355091 z M 210.9972 91.390439 L 210.41894 91.485523 L 209.8412 91.580608 L 209.12548 91.937692 C 208.73183 92.134262 208.16075 92.500763 207.85631 92.752113 L 207.30285 93.209449 L 206.98349 93.690557 C 206.58804 94.286327 206.45366 94.660583 206.2626 95.700253 L 206.11223 96.516224 L 206.16907 96.998882 C 206.24227 97.621702 206.49468 98.278382 206.88892 98.872152 L 207.20363 99.346025 L 207.8067 99.843669 C 208.48044 100.39958 209.06336 100.71102 209.79262 100.90459 L 210.28303 101.03429 L 211.22613 101.0405 L 212.16922 101.04618 L 212.65343 100.90407 C 212.91995 100.82574 213.41267 100.61834 213.74794 100.44312 L 214.3572 100.12427 L 214.875 99.614226 L 215.39331 99.104696 L 215.72301 98.437037 L 216.0527 97.769894 L 216.19843 96.914132 L 216.34364 96.058371 L 216.23874 95.558143 C 216.18105 95.283133 216.04266 94.874785 215.93075 94.650705 L 215.72714 94.243494 L 214.74477 93.249757 L 213.76292 92.256019 L 213.23427 92.001771 L 212.70614 91.747523 L 211.85141 91.568722 L 210.9972 91.390439 z M 210.43599 114.16114 L 209.85567 114.34046 L 209.27534 114.51978 L 208.74411 114.87479 L 208.21287 115.22929 L 207.66304 115.92227 L 207.1132 116.61474 L 206.922 117.10515 L 206.73131 117.59607 L 206.72821 118.44357 L 206.72511 119.29106 L 207.04654 120.02848 C 207.51468 121.10181 207.78478 121.52315 208.38082 122.11001 L 208.91257 122.63349 L 209.49031 122.90893 C 209.8079 123.0605 210.33674 123.23995 210.66595 123.30735 L 211.26488 123.42983 L 211.88965 123.3797 C 213.95985 123.21388 215.60344 121.60774 215.95917 119.4032 L 216.04185 118.89109 L 215.94883 118.28802 L 215.85633 117.68547 L 215.53181 117.02092 L 215.20779 116.35636 L 214.48536 115.62669 L 213.76292 114.89701 L 213.31695 114.67326 C 213.0716 114.54993 212.65278 114.3839 212.38626 114.3048 L 211.90154 114.16114 L 211.16876 114.16114 L 210.43599 114.16114 z M 217.26297 125.04368 L 217.14101 125.14445 C 217.07392 125.20013 217.01905 125.30016 217.01905 125.36666 C 217.01905 125.43313 216.91822 125.55396 216.79478 125.63486 L 216.56999 125.78162 L 216.23202 125.54753 L 215.89406 125.31343 L 215.53542 125.31343 L 215.17679 125.31343 L 214.97112 125.53202 L 214.76596 125.7501 L 214.81919 125.88859 C 214.89044 126.07421 214.99628 126.0631 215.19022 125.8488 L 215.35146 125.67 L 215.54886 125.67 C 215.65731 125.67 215.84162 125.74456 215.95865 125.83536 C 216.07567 125.92617 216.2318 126.02337 216.3054 126.05137 C 216.379 126.07937 216.52639 126.10525 216.63303 126.10925 L 216.82682 126.11648 L 217.09657 125.88911 C 217.24491 125.76428 217.39196 125.58175 217.42316 125.48345 L 217.48001 125.30465 L 217.37149 125.17391 L 217.26297 125.04368 z M 217.37976 126.38365 L 217.20354 126.72937 L 217.02732 127.07457 L 216.85214 127.12056 C 216.6751 127.16686 216.52541 127.10264 216.08733 126.79293 L 215.84548 126.62188 L 215.59175 126.62188 C 215.30914 126.62188 214.8959 126.85765 214.8166 127.06423 L 214.76493 127.19859 L 214.8595 127.29367 L 214.95458 127.38824 L 215.19591 127.19807 C 215.51505 126.94709 215.6494 126.95979 216.12712 127.28489 L 216.52864 127.55826 L 216.8263 127.51071 C 217.41631 127.41668 218.03959 126.38365 217.50636 126.38365 L 217.37976 126.38365 z "
     transform="translate(-178.14184,0.27115)" />
</svg>
