<?xml version="1.0" encoding="UTF-8" standalone="no"?>
<!-- Created with Inkscape (http://www.inkscape.org/) -->

<svg
   width="20.32mm"
   height="128.5mm"
   viewBox="0 0 20.320001 128.50002"
   version="1.1"
   id="svg8"
   inkscape:version="1.4 (e7c3feb1, 2024-10-09)"
   sodipodi:docname="Klok.svg"
   xml:space="preserve"
   xmlns:inkscape="http://www.inkscape.org/namespaces/inkscape"
   xmlns:sodipodi="http://sodipodi.sourceforge.net/DTD/sodipodi-0.dtd"
   xmlns="http://www.w3.org/2000/svg"
   xmlns:svg="http://www.w3.org/2000/svg"
   xmlns:rdf="http://www.w3.org/1999/02/22-rdf-syntax-ns#"
   xmlns:cc="http://creativecommons.org/ns#"
   xmlns:dc="http://purl.org/dc/elements/1.1/"><defs
     id="defs2"><linearGradient
       id="swatch30"
       inkscape:swatch="solid"><stop
         style="stop-color:#151515;stop-opacity:1;"
         offset="0"
         id="stop31" /></linearGradient></defs><sodipodi:namedview
     id="base"
     pagecolor="#ffffff"
     bordercolor="#666666"
     borderopacity="1.0"
     inkscape:pageopacity="0.0"
     inkscape:pageshadow="2"
     inkscape:zoom="1.0120842"
     inkscape:cx="50.885094"
     inkscape:cy="250.96726"
     inkscape:document-units="mm"
     inkscape:current-layer="svg8"
     showgrid="true"
     units="mm"
     inkscape:snap-bbox="true"
     inkscape:snap-page="true"
     inkscape:bbox-nodes="false"
     inkscape:snap-bbox-edge-midpoints="false"
     inkscape:window-width="1440"
     inkscape:window-height="847"
     inkscape:window-x="0"
     inkscape:window-y="25"
     inkscape:window-maximized="0"
     inkscape:snap-bbox-midpoints="true"
     inkscape:snap-nodes="false"
     inkscape:showpageshadow="2"
     inkscape:pagecheckerboard="0"
     inkscape:deskcolor="#d1d1d1"><inkscape:grid
       id="grid1"
       units="mm"
       originx="0"
       originy="0"
       spacingx="2.5400005"
       spacingy="2.5400004"
       empcolor="#0099e5"
       empopacity="0.30196078"
       color="#e50000"
       opacity="0.14901961"
       empspacing="2"
       enabled="true"
       visible="true" /></sodipodi:namedview><metadata
     id="metadata5"><rdf:RDF><cc:Work
         rdf:about=""><dc:format>image/svg+xml</dc:format><dc:type
           rdf:resource="http://purl.org/dc/dcmitype/StillImage" /></cc:Work></rdf:RDF></metadata><g
     inkscape:label="Layer 1"
     inkscape:groupmode="layer"
     id="layer1"
     transform="translate(0,-168.49998)"><rect
       style="display:inline;fill:#e6e6e6;stroke:none;stroke-width:0.443844;stroke-linecap:round;stroke-linejoin:round;stroke-opacity:1;fill-opacity:1"
       id="rect10"
       width="20.32"
       height="128.5"
       x="0"
       y="168.49998" /></g><path
     id="path1"
     style="display:inline;fill:#00a4e9;fill-opacity:1"
     inkscape:label="Azul"
     d="M 2.4561808 8.5648519 L 2.3192383 8.67854 C 1.9064103 9.021157 2.7123862 9.3748766 3.9661662 9.4009766 C 4.2851152 9.4076166 4.644728 9.4402603 4.7650838 9.4738403 C 4.8854396 9.5074113 6.4092762 9.5204191 8.1514404 9.5027791 L 11.319206 9.4707397 L 11.48457 9.382373 L 11.649935 9.2940063 L 11.62203 9.0991862 L 11.594124 8.904366 L 8.2485921 8.8888631 C 4.8279292 8.8730911 4.1040557 8.8421289 3.0551107 8.6656209 L 2.4561808 8.5648519 z " /><path
     id="path2"
     style="display:inline;fill:#ff4253;fill-opacity:1"
     inkscape:label="Rojo"
     d="M 13.107727 16.915247 L 12.582694 17.052189 C 12.293911 17.127408 11.865928 17.293239 11.631848 17.420642 L 11.206551 17.652153 L 10.443807 18.431433 L 9.6810628 19.210714 L 9.461438 19.691305 C 9.340396 19.955695 9.1545791 20.533442 9.0490601 20.974947 L 8.8573405 21.777482 L 8.9007487 22.580534 L 8.9441569 23.383586 L 9.1296753 23.863143 C 9.3918423 24.542217 9.7027417 24.955753 10.313582 25.435657 L 10.844816 25.852686 L 11.533663 26.150342 C 11.912562 26.314124 12.503794 26.510274 12.847278 26.585974 L 13.471529 26.723433 L 14.00638 26.674858 C 14.300559 26.648044 14.762558 26.548789 15.032674 26.454199 L 15.5236 26.282117 L 16.380396 25.696106 L 17.236674 25.110095 L 17.557068 24.689966 C 18.654686 23.250675 18.797247 21.311341 17.941541 19.459277 L 17.63975 18.806087 L 17.251143 18.381307 C 16.737539 17.820521 15.938558 17.311164 15.230595 17.092497 L 14.657503 16.915247 L 13.882357 16.915247 L 13.107727 16.915247 z M 12.652974 50.8 L 12.080916 50.945211 L 11.508858 51.089905 L 11.018449 51.419084 C 10.748569 51.600128 10.238468 52.037764 9.8851847 52.391634 L 9.2428467 53.035522 L 8.9839478 53.554354 C 8.653112 54.21828 8.5566688 54.625382 8.3917358 56.043091 L 8.2573771 57.196509 L 8.2429077 59.293022 L 8.2289551 61.389535 L 8.3209391 61.836019 L 8.4129232 62.281986 L 8.3204224 64.646183 C 8.2695254 65.946513 8.2334239 67.391724 8.2403239 67.857874 C 8.2472279 68.324034 8.211639 68.966227 8.161259 69.285177 L 8.0697917 69.865503 L 8.0150146 76.199483 C 7.9849146 79.683383 7.9621617 82.995457 7.9643717 83.559757 C 7.9665817 84.124047 7.9715606 85.196271 7.9757406 85.942041 L 7.983492 87.298031 L 8.1178507 88.1941 C 8.1918827 88.687 8.2533186 89.361693 8.2542765 89.693233 C 8.2552345 90.024773 8.3128283 90.720492 8.3819173 91.239392 L 8.507491 92.182487 L 8.4651164 94.707397 C 8.3945944 98.929687 8.3925537 104.13092 8.4599487 107.4875 L 8.5240275 110.6718 L 8.614978 111.10071 C 8.7015406 111.50859 8.8967828 114.11126 8.9048828 114.96404 C 8.9069718 115.18485 8.8600364 115.66676 8.8004964 116.03478 C 8.740959 116.4028 8.6695708 116.94495 8.6418498 117.23936 L 8.5912069 117.77472 L 8.7736247 118.95966 L 8.9560425 120.1446 L 9.1710164 120.61021 C 9.4169854 121.14201 10.041936 121.99192 10.543026 122.47676 L 10.884607 122.80697 L 11.634432 123.17336 C 12.046846 123.37478 12.588992 123.5974 12.83901 123.6679 L 13.293245 123.79606 L 13.892692 123.7573 L 14.492139 123.71803 L 14.878678 123.5475 C 15.995375 123.05353 17.186816 121.45387 17.491956 120.0397 L 17.634583 119.38031 L 17.707446 117.90857 L 17.780827 116.4363 L 17.884696 116.09627 C 18.013646 115.67364 18.018373 115.23548 17.939473 110.86042 C 17.864443 106.70008 17.867247 106.98553 17.886247 105.23957 C 17.894527 104.479 17.875412 103.23442 17.843872 102.47385 C 17.751005 100.2344 17.751514 100.14515 17.864026 99.325203 L 17.971513 98.540238 L 17.871777 97.832788 L 17.771525 97.124821 L 17.971513 96.45096 L 18.172017 95.776583 L 18.112073 94.954411 L 18.052128 94.132239 L 18.150313 93.187077 L 18.247982 92.241915 L 18.24023 90.198112 C 18.23117 87.802812 18.229591 87.968351 18.294491 85.165861 C 18.360411 82.320761 18.36047 82.591902 18.29139 80.125342 C 18.25841 78.947692 18.221938 77.341667 18.210258 76.556567 C 18.19858 75.771457 18.134478 74.285927 18.068148 73.255477 L 17.947742 71.381689 L 17.908984 66.564412 C 17.859464 60.441788 17.852878 61.174348 17.978748 58.214535 L 18.087268 55.663786 L 17.84904 54.834379 C 17.717818 54.378258 17.447853 53.682017 17.249076 53.28667 L 16.887341 52.567851 L 16.401066 52.092944 C 15.64028 51.350179 14.746505 51.000498 13.241052 50.856327 L 12.652974 50.8 z M 18.756478 124.95413 L 18.634521 125.05542 C 18.567433 125.1111 18.512565 125.21112 18.512565 125.27762 C 18.512565 125.34408 18.411726 125.46441 18.288289 125.54531 L 18.063497 125.69259 L 17.725533 125.45849 L 17.387569 125.22388 L 17.028935 125.22388 L 16.6703 125.22388 L 16.464628 125.44247 L 16.259473 125.66106 L 16.312699 125.79956 C 16.383942 125.98519 16.489797 125.97355 16.683736 125.75925 L 16.844967 125.58097 L 17.042371 125.58097 C 17.150821 125.58097 17.335143 125.65501 17.452165 125.74581 C 17.569188 125.83662 17.725314 125.93382 17.798914 125.96182 L 17.798914 125.96234 C 17.872517 125.99034 18.019902 126.01621 18.126542 126.02021 L 18.320329 126.02693 L 18.59008 125.80007 C 18.738429 125.67524 18.885465 125.49271 18.916675 125.39441 L 18.973519 125.21561 L 18.864998 125.08487 L 18.756478 124.95413 z M 18.87275 126.29462 L 18.696533 126.64033 L 18.520317 126.98553 L 18.34565 127.03152 C 18.168604 127.07781 18.018401 127.01309 17.580322 126.70338 L 17.338477 126.53285 L 17.085262 126.53285 C 16.802653 126.53285 16.389386 126.76861 16.310116 126.9752 L 16.258439 127.10955 L 16.353007 127.20412 L 16.447575 127.29921 L 16.689421 127.10904 C 17.008554 126.85797 17.142396 126.87076 17.620113 127.19585 L 18.021639 127.46922 L 18.319812 127.42168 C 18.909787 127.32765 19.533101 126.29462 18.999874 126.29462 L 18.87275 126.29462 z " /></svg>
