<?xml version="1.0" encoding="UTF-8" standalone="no"?>
<!-- Created with Inkscape (http://www.inkscape.org/) -->

<svg
   width="50.799999mm"
   height="128.5mm"
   viewBox="0 0 50.800003 128.50002"
   version="1.1"
   id="svg8"
   inkscape:version="1.4 (e7c3feb1, 2024-10-09)"
   sodipodi:docname="BaBum.svg"
   xml:space="preserve"
   xmlns:inkscape="http://www.inkscape.org/namespaces/inkscape"
   xmlns:sodipodi="http://sodipodi.sourceforge.net/DTD/sodipodi-0.dtd"
   xmlns="http://www.w3.org/2000/svg"
   xmlns:svg="http://www.w3.org/2000/svg"
   xmlns:rdf="http://www.w3.org/1999/02/22-rdf-syntax-ns#"
   xmlns:cc="http://creativecommons.org/ns#"
   xmlns:dc="http://purl.org/dc/elements/1.1/"><defs
     id="defs2"><linearGradient
       id="swatch30"
       inkscape:swatch="solid"><stop
         style="stop-color:#151515;stop-opacity:1;"
         offset="0"
         id="stop31" /></linearGradient><linearGradient
       id="SVGID_1_"
       gradientUnits="userSpaceOnUse"
       x1="22.499969"
       y1="-7.8279836e-06"
       x2="22.499969"
       y2="44.999989">
		<stop
   offset="0"
   style="stop-color:#B0ACAE"
   id="stop1" />
		<stop
   offset="1"
   style="stop-color:#000000"
   id="stop2" />
	</linearGradient><linearGradient
       id="SVGID_2_"
       gradientUnits="userSpaceOnUse"
       x1="4.65521"
       y1="-4108.708"
       x2="42.780788"
       y2="-4108.708"
       gradientTransform="rotate(90,-2042.495,-2043.713)">
		<stop
   offset="0"
   style="stop-color:#232223"
   id="stop3" />
		<stop
   offset="1"
   style="stop-color:#1F1E1F"
   id="stop4" />
	</linearGradient><linearGradient
       id="SVGID_1_-6"
       gradientUnits="userSpaceOnUse"
       x1="11.33881"
       y1="-0.0090399999"
       x2="11.33881"
       y2="22.666759">
		<stop
   offset="0"
   style="stop-color:#B0ACAE"
   id="stop1-8" />
		<stop
   offset="1"
   style="stop-color:#000000"
   id="stop2-1" />
	</linearGradient><linearGradient
       id="SVGID_2_-0"
       gradientUnits="userSpaceOnUse"
       x1="4.5368199"
       y1="-4120.5469"
       x2="22.556919"
       y2="-4120.5469"
       gradientTransform="rotate(90,-2053.495,-2055.713)">
		<stop
   offset="0"
   style="stop-color:#232223"
   id="stop3-6" />
		<stop
   offset="1"
   style="stop-color:#1F1E1F"
   id="stop4-0" />
	</linearGradient></defs><sodipodi:namedview
     id="base"
     pagecolor="#ffffff"
     bordercolor="#666666"
     borderopacity="1.0"
     inkscape:pageopacity="0.0"
     inkscape:pageshadow="2"
     inkscape:zoom="0.75828341"
     inkscape:cx="123.30482"
     inkscape:cy="229.46566"
     inkscape:document-units="mm"
     inkscape:current-layer="svg8"
     showgrid="true"
     units="mm"
     inkscape:snap-bbox="true"
     inkscape:snap-page="true"
     inkscape:bbox-nodes="false"
     inkscape:snap-bbox-edge-midpoints="false"
     inkscape:window-width="1440"
     inkscape:window-height="847"
     inkscape:window-x="0"
     inkscape:window-y="25"
     inkscape:window-maximized="0"
     inkscape:snap-bbox-midpoints="true"
     inkscape:snap-nodes="false"
     inkscape:showpageshadow="2"
     inkscape:pagecheckerboard="0"
     inkscape:deskcolor="#d1d1d1"><inkscape:grid
       id="grid1"
       units="mm"
       originx="0"
       originy="0"
       spacingx="2.5400005"
       spacingy="2.5400004"
       empcolor="#0099e5"
       empopacity="0.30196078"
       color="#e50000"
       opacity="0.14901961"
       empspacing="2"
       enabled="true"
       visible="true" /></sodipodi:namedview><metadata
     id="metadata5"><rdf:RDF><cc:Work
         rdf:about=""><dc:format>image/svg+xml</dc:format><dc:type
           rdf:resource="http://purl.org/dc/dcmitype/StillImage" /></cc:Work></rdf:RDF></metadata><g
     inkscape:label="Layer 1"
     inkscape:groupmode="layer"
     id="layer1"
     transform="translate(0,-168.49998)"
     style="display:inline;fill:#e6e6e6;fill-opacity:1"><rect
       style="display:inline;vector-effect:none;fill:#e6e6e6;fill-opacity:1;fill-rule:evenodd;stroke:none;stroke-width:0.838319;stroke-linecap:butt;stroke-linejoin:miter;stroke-miterlimit:4;stroke-dasharray:none;stroke-dashoffset:0;stroke-opacity:1;paint-order:normal"
       id="rect420-2-9-7"
       width="50.799999"
       height="128.5"
       x="0"
       y="168.49998"
       sodipodi:insensitive="true"
       inkscape:label="bg2" /></g><path
     id="path1"
     style="display:inline;fill:#00a4e9;fill-opacity:1"
     inkscape:label="Azul"
     d="M 63.671782 8.7465381 L 63.608736 8.9460091 L 63.545174 9.1454802 L 63.638192 9.237981 C 63.893706 9.493495 64.879249 9.5358736 72.198393 9.6048836 C 74.273609 9.6244536 75.99644 9.6656909 76.0271 9.6963509 C 76.097702 9.7669509 76.265745 9.7675412 76.447229 9.6979012 L 76.588306 9.643641 L 76.588306 9.4333179 L 76.588306 9.2235116 L 76.240523 9.1299772 L 75.892741 9.0364429 L 71.891435 8.9811491 C 69.690625 8.9508891 67.227506 8.9187189 66.417867 8.9093189 C 65.608228 8.8999489 64.659318 8.8593619 64.308952 8.8194019 L 63.671782 8.7465381 z M 98.402478 34.444194 L 97.732752 34.504656 C 97.364657 34.537926 96.401436 34.599048 95.591797 34.640048 C 94.782158 34.681048 93.35686 34.762316 92.424548 34.820916 L 90.729561 34.927369 L 89.867599 34.874659 L 89.005636 34.821949 L 87.815527 34.963026 L 86.625419 35.104102 L 85.956209 35.048809 C 85.588191 35.018509 84.283371 34.992448 83.056645 34.991448 C 81.829919 34.989948 80.46486 34.949331 80.023238 34.901531 L 79.220186 34.814714 L 77.257516 34.908249 C 74.981856 35.016199 74.123314 35.124041 73.530095 35.377471 L 73.103764 35.559889 L 72.721875 35.984669 L 72.339986 36.409449 L 72.230432 36.775318 C 72.170129 36.976588 72.08547 37.141187 72.04233 37.141187 C 71.999185 37.141187 71.748012 37.33883 71.484225 37.57992 L 71.004667 38.018136 L 70.747319 38.539035 L 70.490487 39.059417 L 70.449662 39.806658 L 70.409355 40.553382 L 70.519942 41.055677 C 70.580866 41.331837 70.730242 41.769318 70.851705 42.028228 L 71.072363 42.499 L 71.689897 43.030234 C 72.383583 43.627264 72.741529 43.831923 73.513041 44.069963 L 74.045825 44.234294 L 79.443429 44.210007 C 82.412106 44.196607 86.30666 44.164293 88.097681 44.138693 C 91.92815 44.083893 91.648835 44.084541 94.03892 44.127841 C 95.074053 44.146541 95.964097 44.188459 96.016577 44.220859 C 96.119057 44.284199 97.670793 44.403131 100.32019 44.551071 C 101.22797 44.601761 102.13103 44.677203 102.3273 44.718503 C 102.88007 44.834713 103.40997 44.824695 104.37162 44.679745 C 104.85803 44.606445 105.40568 44.54642 105.5886 44.54642 C 107.44348 44.54642 109.79456 43.196889 110.2741 41.857179 L 110.41363 41.468572 L 110.41311 40.753887 L 110.41311 40.039202 L 110.27617 39.383428 L 110.13923 38.727654 L 109.89842 38.313726 L 109.65709 37.899797 L 108.75792 37.005278 L 107.85875 36.110759 L 107.32028 35.828089 C 106.60049 35.450379 105.63907 35.19644 104.52355 35.09015 C 104.0181 35.04199 103.25693 34.936872 102.83218 34.856572 L 102.05962 34.710845 L 100.9 34.693275 C 100.2621 34.683755 99.439111 34.62365 99.071171 34.55995 L 98.402478 34.444194 z M 76.633264 78.243071 L 75.874654 78.353659 L 75.116561 78.464246 L 73.466016 78.403785 L 71.81547 78.343324 L 69.941683 78.6601 L 68.068412 78.97636 L 67.081393 79.290553 L 66.094373 79.604745 L 65.564689 79.94736 C 65.001276 80.31188 64.697019 80.65503 64.363212 81.30335 L 64.156506 81.704876 L 64.116716 82.430413 L 64.076925 83.15595 L 64.22937 83.61432 L 64.381299 84.07269 L 64.733732 84.51814 C 64.927392 84.76314 65.208085 85.173796 65.357983 85.430746 C 65.930341 86.411886 66.576817 86.879218 67.711328 87.131418 C 68.054812 87.207778 68.610964 87.351478 68.946912 87.450778 C 70.228278 87.829558 72.566484 88.166397 74.536751 88.255897 L 74.536751 88.25538 C 75.34639 88.29218 77.433794 88.326861 79.175745 88.331861 L 82.342993 88.340646 L 84.79659 88.209388 C 86.879321 88.097868 93.567585 87.952892 100.00806 87.879692 L 101.70305 87.860055 L 103.56857 87.980461 L 105.43409 88.100868 L 106.15601 87.992347 C 106.5529 87.932667 107.09846 87.812597 107.36834 87.725697 C 107.63822 87.638757 108.08163 87.50389 108.35381 87.42649 C 108.62598 87.34906 109.09318 87.12766 109.39199 86.93453 L 109.93511 86.583647 L 110.21003 86.184189 C 110.36124 85.964419 110.59133 85.468437 110.72111 85.082447 L 110.95727 84.380681 L 110.91231 83.819475 L 110.86787 83.258269 L 110.34852 82.219056 C 109.44935 80.418356 108.59554 79.424603 107.63602 79.062143 L 107.1451 78.876624 L 105.49455 78.672502 L 103.84401 78.468381 L 101.88082 78.41412 L 99.917114 78.359343 L 97.866077 78.446676 L 95.814522 78.53401 L 95.279155 78.457528 L 94.744303 78.381047 L 90.952287 78.524191 C 88.866852 78.602971 86.598734 78.661932 85.911768 78.654932 L 84.662748 78.643047 L 83.056645 78.448227 L 81.451058 78.253407 L 79.041903 78.248239 L 76.633264 78.243071 z "
     transform="translate(-60.712789,0.16868)" /><path
     id="path2"
     style="display:inline;fill:#ff4253;fill-opacity:1"
     inkscape:label="Rojo"
     d="M 101.79607 104.97271 L 99.743998 104.98407 C 98.615409 104.99107 95.805146 104.99218 93.498901 104.98718 C 91.192656 104.98318 87.905645 104.97819 86.194438 104.97787 L 83.083 104.97736 L 80.43975 105.1174 C 78.986003 105.19434 77.214541 105.29689 76.50304 105.34529 C 75.791538 105.39366 74.647526 105.44468 73.960559 105.45898 L 72.71154 105.48482 L 71.703333 105.36235 C 71.148793 105.2949 70.305455 105.24069 69.829545 105.24142 L 68.964482 105.24246 L 68.384672 105.37888 C 68.065723 105.45395 67.390213 105.71286 66.883989 105.95456 L 65.963631 106.39432 L 65.336796 106.99894 C 64.992042 107.33161 64.515981 107.89379 64.27898 108.24796 L 63.848515 108.89185 L 63.745162 109.38949 L 63.641809 109.88713 L 63.701237 110.26179 C 63.734089 110.46812 63.853167 110.84256 63.96582 111.09378 L 64.170976 111.5506 L 65.093917 112.55364 C 66.414894 113.98891 67.033771 114.38854 68.274085 114.60778 L 68.696798 114.68219 L 70.436743 114.6362 C 71.39359 114.6108 73.260463 114.57482 74.585327 114.55662 C 75.910191 114.53842 77.596349 114.5034 78.332385 114.4791 C 79.869128 114.4281 82.763065 114.42735 82.844255 114.47755 C 82.919179 114.52387 95.734754 114.63783 98.00457 114.61243 C 99.010482 114.60143 100.51593 114.59716 101.3501 114.60416 C 102.18427 114.61116 103.64831 114.61333 104.60365 114.60933 L 106.34049 114.60106 L 106.92961 114.47859 C 107.7122 114.31541 108.5994 113.90389 109.05351 113.49363 L 109.42248 113.16032 L 109.69791 112.60118 L 109.97335 112.04153 L 110.0643 111.35836 L 110.15577 110.6752 L 110.04828 110.12071 C 109.98926 109.81581 109.90619 109.31355 109.86379 109.0045 L 109.7868 108.44226 L 109.51291 107.92808 C 108.92617 106.82725 108.10652 106.13165 106.92341 105.72925 L 106.27021 105.50704 L 105.40515 105.50704 L 104.53957 105.50704 L 104.1675 105.37578 C 103.96283 105.30357 103.34529 105.18341 102.79549 105.10861 L 101.79607 104.97271 z M 87.432088 115.19585 L 86.584595 115.19689 L 85.737101 115.19792 L 85.248242 115.39998 C 84.565888 115.6822 83.784878 116.26147 83.081966 117.0066 L 82.483553 117.64118 L 82.25566 118.09077 L 82.02725 118.54087 L 81.889274 119.4788 L 81.750781 120.41672 L 81.847933 121.14743 L 81.945601 121.87865 L 82.214836 122.42797 L 82.48407 122.97729 L 83.026156 123.47959 L 83.568758 123.98188 L 84.251404 124.32295 C 84.922065 124.65788 85.608675 124.91019 86.049227 124.98389 L 86.049227 124.9844 C 86.450148 125.0515 86.623847 125.04673 87.385063 124.95133 C 87.798294 124.89951 88.379474 124.77741 88.676457 124.67951 L 89.216476 124.50123 L 89.796285 124.10694 L 90.376095 123.71213 L 90.918697 123.10752 C 91.637922 122.30579 91.894424 121.89656 92.076766 121.25853 L 92.228178 120.72782 L 92.179602 120.09891 L 92.131026 119.4695 L 91.809082 118.7114 C 91.204447 117.28725 90.919211 116.94663 89.584928 116.0542 L 88.928121 115.61495 L 88.180363 115.40514 L 87.432088 115.19585 z M 110.20331 125.04332 L 110.08135 125.1446 C 110.01427 125.20028 109.9594 125.30031 109.9594 125.36681 C 109.9594 125.43328 109.85855 125.55359 109.73512 125.63449 L 109.51033 125.78177 L 109.17236 125.54768 L 108.8344 125.31307 L 108.47577 125.31307 L 108.11713 125.31307 L 107.91146 125.53166 L 107.7063 125.75025 L 107.75953 125.88874 C 107.83077 126.07436 107.93663 126.06273 108.13057 125.84843 L 108.2918 125.67015 L 108.4892 125.67015 C 108.59765 125.67015 108.78198 125.7442 108.899 125.835 C 109.01602 125.92581 109.17214 126.02301 109.24574 126.05101 L 109.24574 126.05152 C 109.31935 126.07952 109.46673 126.1054 109.57337 126.1094 L 109.76716 126.11612 L 110.03691 125.88926 C 110.18526 125.76443 110.33231 125.5819 110.36351 125.4836 L 110.42035 125.3048 L 110.31183 125.17406 L 110.20331 125.04332 z M 110.3201 126.3838 L 110.14388 126.72952 L 109.96766 127.07472 L 109.79248 127.12019 C 109.61543 127.16649 109.46523 127.10227 109.02715 126.79256 L 108.78531 126.62151 L 108.53209 126.62151 C 108.24948 126.62151 107.83625 126.8578 107.75695 127.06438 L 107.70527 127.19874 L 107.79984 127.29331 L 107.89441 127.38839 L 108.13625 127.19822 C 108.45538 126.94724 108.58923 126.95994 109.06694 127.28504 L 109.46847 127.55789 L 109.76664 127.51035 C 110.35665 127.41632 110.97993 126.3838 110.4467 126.3838 L 110.3201 126.3838 z "
     transform="translate(-60.712789,0.16868)" /></svg>
