<?xml version="1.0" encoding="UTF-8" standalone="no"?>
<!-- Created with Inkscape (http://www.inkscape.org/) -->

<svg
   width="40.639999mm"
   height="128.5mm"
   viewBox="0 0 40.640002 128.50002"
   version="1.1"
   id="svg8"
   inkscape:version="1.4 (e7c3feb1, 2024-10-09)"
   sodipodi:docname="Secu.svg"
   xml:space="preserve"
   xmlns:inkscape="http://www.inkscape.org/namespaces/inkscape"
   xmlns:sodipodi="http://sodipodi.sourceforge.net/DTD/sodipodi-0.dtd"
   xmlns="http://www.w3.org/2000/svg"
   xmlns:svg="http://www.w3.org/2000/svg"
   xmlns:rdf="http://www.w3.org/1999/02/22-rdf-syntax-ns#"
   xmlns:cc="http://creativecommons.org/ns#"
   xmlns:dc="http://purl.org/dc/elements/1.1/"><defs
     id="defs2"><linearGradient
       id="swatch30"
       inkscape:swatch="solid"><stop
         style="stop-color:#151515;stop-opacity:1;"
         offset="0"
         id="stop31" /></linearGradient><linearGradient
       id="SVGID_1_"
       gradientUnits="userSpaceOnUse"
       x1="22.499969"
       y1="-7.8279836e-06"
       x2="22.499969"
       y2="44.999989">
		<stop
   offset="0"
   style="stop-color:#B0ACAE"
   id="stop1" />
		<stop
   offset="1"
   style="stop-color:#000000"
   id="stop2" />
	</linearGradient><linearGradient
       id="SVGID_2_"
       gradientUnits="userSpaceOnUse"
       x1="4.65521"
       y1="-4108.708"
       x2="42.780788"
       y2="-4108.708"
       gradientTransform="rotate(90,-2042.495,-2043.713)">
		<stop
   offset="0"
   style="stop-color:#232223"
   id="stop3" />
		<stop
   offset="1"
   style="stop-color:#1F1E1F"
   id="stop4" />
	</linearGradient><linearGradient
       id="SVGID_1_-6"
       gradientUnits="userSpaceOnUse"
       x1="11.33881"
       y1="-0.0090399999"
       x2="11.33881"
       y2="22.666759">
		<stop
   offset="0"
   style="stop-color:#B0ACAE"
   id="stop1-8" />
		<stop
   offset="1"
   style="stop-color:#000000"
   id="stop2-1" />
	</linearGradient><linearGradient
       id="SVGID_2_-0"
       gradientUnits="userSpaceOnUse"
       x1="4.5368199"
       y1="-4120.5469"
       x2="22.556919"
       y2="-4120.5469"
       gradientTransform="rotate(90,-2053.495,-2055.713)">
		<stop
   offset="0"
   style="stop-color:#232223"
   id="stop3-6" />
		<stop
   offset="1"
   style="stop-color:#1F1E1F"
   id="stop4-0" />
	</linearGradient></defs><sodipodi:namedview
     id="base"
     pagecolor="#ffffff"
     bordercolor="#666666"
     borderopacity="1.0"
     inkscape:pageopacity="0.0"
     inkscape:pageshadow="2"
     inkscape:zoom="0.97861291"
     inkscape:cx="114.95863"
     inkscape:cy="247.28879"
     inkscape:document-units="mm"
     inkscape:current-layer="svg8"
     showgrid="true"
     units="mm"
     inkscape:snap-bbox="true"
     inkscape:snap-page="true"
     inkscape:bbox-nodes="false"
     inkscape:snap-bbox-edge-midpoints="false"
     inkscape:window-width="1440"
     inkscape:window-height="847"
     inkscape:window-x="0"
     inkscape:window-y="25"
     inkscape:window-maximized="0"
     inkscape:snap-bbox-midpoints="true"
     inkscape:snap-nodes="false"
     inkscape:showpageshadow="2"
     inkscape:pagecheckerboard="0"
     inkscape:deskcolor="#d1d1d1"><inkscape:grid
       id="grid1"
       units="mm"
       originx="0"
       originy="0"
       spacingx="2.5400005"
       spacingy="2.5400004"
       empcolor="#0099e5"
       empopacity="0.30196078"
       color="#e50000"
       opacity="0.14901961"
       empspacing="2"
       enabled="true"
       visible="true" /></sodipodi:namedview><metadata
     id="metadata5"><rdf:RDF><cc:Work
         rdf:about=""><dc:format>image/svg+xml</dc:format><dc:type
           rdf:resource="http://purl.org/dc/dcmitype/StillImage" /></cc:Work></rdf:RDF></metadata><g
     inkscape:label="Layer 1"
     inkscape:groupmode="layer"
     id="layer1"
     transform="translate(0,-168.49998)"
     style="display:inline"><rect
       style="display:inline;vector-effect:none;fill:#e6e6e6;fill-opacity:1;fill-rule:evenodd;stroke:none;stroke-width:0.749815;stroke-linecap:butt;stroke-linejoin:miter;stroke-miterlimit:4;stroke-dasharray:none;stroke-dashoffset:0;stroke-opacity:1;paint-order:normal;font-variation-settings:normal;opacity:1;-inkscape-stroke:none;stop-color:#000000;stop-opacity:1"
       id="rect420-2-9-7"
       width="40.639999"
       height="128.5"
       x="-0.27964002"
       y="168.22035"
       inkscape:label="bg2" /></g><path
     id="path1"
     style="display:inline;fill:#00a4e9;fill-opacity:1"
     inkscape:label="Azul"
     d="M 34.259552 8.569465 L 33.632717 8.6366444 C 32.681543 8.7380364 27.206629 8.8353501 25.95825 8.7730701 C 25.614767 8.7559401 24.925843 8.7505713 24.427594 8.7617013 L 23.521706 8.7823719 L 23.367193 8.9529041 L 23.212681 9.1239531 L 23.321201 9.2552112 L 23.430239 9.3864694 L 23.936151 9.4133411 C 24.214221 9.4279311 24.722315 9.4129182 25.065798 9.3802682 L 25.690566 9.3208403 L 26.315334 9.4009388 L 26.939585 9.4810373 L 28.278005 9.4334949 C 29.014041 9.4072349 30.439337 9.3716 31.445253 9.35443 C 32.451168 9.337265 33.510389 9.2890598 33.799632 9.2474598 L 34.325698 9.1720122 L 34.419232 9.0231841 L 34.512766 8.8748727 L 34.386159 8.7224272 L 34.259552 8.569465 z M 55.891306 14.645063 L 53.682656 14.693122 C 48.096612 14.815219 38.125601 14.950314 35.905963 14.933934 L 33.452366 14.915848 L 32.916998 14.809911 L 32.38163 14.703458 L 29.571466 14.728262 L 26.761301 14.753067 L 26.230584 14.846601 C 25.563633 14.964585 25.104809 15.197059 24.732485 15.604694 C 24.572402 15.779959 24.24479 16.130573 24.004364 16.383975 L 23.567181 16.844412 L 23.360992 17.291413 C 23.247487 17.537195 23.129453 17.958864 23.098993 18.228307 L 23.043699 18.7182 L 23.183742 19.640107 L 23.323785 20.562015 L 23.607489 21.093765 L 23.890676 21.625516 L 24.344395 21.987767 C 24.936097 22.459686 25.311858 22.646131 26.107595 22.863683 L 26.761301 23.042483 L 28.233046 23.177876 C 29.042685 23.252382 30.146883 23.374123 30.686643 23.448143 C 31.226402 23.522165 32.511316 23.620968 33.541766 23.667768 C 34.572216 23.714565 35.734579 23.775984 36.125071 23.804194 C 36.515562 23.832409 38.30229 23.897862 40.095371 23.949922 C 41.888453 24.001983 44.098405 24.076763 45.006183 24.115803 C 45.91396 24.154873 47.624083 24.168512 48.806467 24.146292 L 50.956207 24.105984 L 51.57219 23.970592 C 51.910946 23.896215 52.649656 23.799942 53.21395 23.756652 L 54.239728 23.678103 L 55.120294 23.453311 L 56.00086 23.228519 L 56.435976 22.949466 C 56.935873 22.628683 57.218048 22.294561 57.798683 21.336644 L 58.212612 20.653999 L 58.357822 20.066438 L 58.502516 19.478877 L 58.401231 18.972448 C 58.345333 18.694112 58.193038 18.284745 58.06275 18.062426 L 57.825555 17.658316 L 57.845709 17.042333 L 57.865863 16.425833 L 57.630735 15.945759 L 57.395607 15.465168 L 57.069529 15.196451 C 56.890194 15.048628 56.551946 14.86396 56.317637 14.78614 L 55.891306 14.645063 z M 29.444859 27.149209 L 28.593748 27.150243 L 27.742637 27.151277 L 27.296669 27.279434 C 25.964245 27.661779 25.387454 27.847882 25.066314 27.99877 L 24.70923 28.166202 L 24.121153 28.750662 L 23.533075 29.335123 L 23.338255 29.857571 C 23.231026 30.145063 23.120838 30.607063 23.093308 30.883865 L 23.043182 31.386677 L 23.229217 32.211433 C 23.331658 32.664803 23.415769 33.114572 23.415769 33.211372 C 23.415769 33.308182 23.498652 33.609538 23.600254 33.881098 L 23.785256 34.375125 L 24.218821 34.850031 L 24.652903 35.324421 L 25.857997 35.880459 L 27.062575 36.436498 L 27.625848 36.564655 L 28.188605 36.692296 L 28.99269 36.662841 L 29.796775 36.632868 L 30.241709 36.437015 C 30.48643 36.329145 30.867358 36.069456 31.088169 35.860306 C 31.30898 35.651166 31.662531 35.365186 31.873651 35.224686 C 32.576947 34.756616 33.070708 33.949281 33.183648 33.082181 C 33.215605 32.836841 33.30675 32.369885 33.38622 32.045035 L 33.530397 31.454373 L 33.417743 30.950011 L 33.304571 30.445649 L 33.01725 30.068928 C 32.859013 29.86159 32.611036 29.47116 32.46638 29.201281 C 32.321724 28.931401 32.002725 28.508009 31.757379 28.26077 L 31.311411 27.811185 L 30.884047 27.61223 C 30.649193 27.502633 30.229184 27.353504 29.950771 27.280984 L 29.444859 27.149209 z "
     transform="translate(-20.449542,-0.01288133)" /><path
     id="path2"
     style="display:inline;fill:#ff4253;fill-opacity:1"
     inkscape:label="Rojo"
     d="M 26.676035 106.74022 L 26.006826 106.88129 C 25.638808 106.95901 25.096662 107.14102 24.802248 107.28592 L 24.26688 107.54947 L 23.688621 108.1298 C 22.979054 108.84186 22.684502 109.34292 22.438051 110.25628 L 22.247882 110.96011 L 22.243748 111.78384 L 22.239097 112.60808 L 22.527968 113.45144 C 22.686821 113.91538 22.931826 114.52388 23.072638 114.80381 C 23.21345 115.08374 23.431019 115.58555 23.556329 115.91847 C 23.912266 116.86411 24.153586 117.20639 25.417197 118.5612 C 26.066352 119.25721 26.761363 120.06719 26.961806 120.36161 C 27.16225 120.65602 27.455936 121.01746 27.614479 121.16466 C 27.773023 121.31187 28.076265 121.70043 28.28834 122.02817 L 28.673846 122.624 L 29.084674 122.92062 C 29.310473 123.08358 29.78401 123.43099 30.137323 123.69267 C 30.880075 124.24279 31.114459 124.37342 31.798203 124.6213 C 32.07236 124.72069 32.496987 124.87556 32.742332 124.96546 L 33.188816 125.12876 L 33.704547 125.13186 L 34.220278 125.13496 L 34.753062 124.95564 C 35.046172 124.8569 35.478752 124.65716 35.714243 124.51226 L 36.142641 124.24923 L 36.887298 123.40535 C 37.296875 122.94118 37.713691 122.42749 37.813857 122.26433 C 37.914023 122.10116 38.582999 121.34542 39.300588 120.58485 C 40.018177 119.82428 40.729817 119.01893 40.881887 118.7953 C 41.033958 118.57166 41.21767 118.33966 41.29013 118.27956 L 41.421905 118.17001 L 41.524741 118.59841 C 41.581209 118.8338 41.785948 119.30671 41.980011 119.64951 C 42.174073 119.99231 42.494571 120.60979 42.692112 121.02203 C 43.417583 122.536 43.922202 123.14396 44.875958 123.65236 C 45.121303 123.78314 45.574504 124.06914 45.883132 124.28798 L 46.444338 124.68589 L 47.074273 124.87709 L 47.703692 125.0683 L 48.297455 125.02541 L 48.8907 124.982 L 49.515468 124.73498 C 49.858952 124.59922 50.501272 124.31644 50.943288 124.1066 L 51.746856 123.72523 L 52.195925 123.27616 C 52.442762 123.02933 52.740509 122.63411 52.857383 122.39766 C 52.974257 122.16121 53.22727 121.787 53.420139 121.56619 C 53.613008 121.34538 53.87543 120.98394 54.003049 120.76313 C 54.130668 120.54232 54.486685 120.08395 54.794216 119.74407 L 55.353355 119.12602 L 55.683567 118.49505 C 55.865189 118.14796 56.20205 117.64304 56.432359 117.37316 C 56.662669 117.10328 56.965325 116.68162 57.104669 116.43627 C 57.244012 116.19093 57.551194 115.74934 57.787315 115.45493 C 58.797937 114.19481 59.380314 112.42727 59.371714 110.64489 C 59.365376 109.32594 58.63644 108.05318 57.576475 107.5102 L 57.16203 107.29781 L 56.552248 107.20065 L 55.942983 107.1035 L 55.361106 107.16035 C 55.040998 107.19171 54.442241 107.29499 54.030438 107.38979 L 53.281646 107.56187 L 52.84033 107.80217 L 52.399013 108.04246 L 51.972682 108.50858 C 51.367198 109.17107 50.738641 110.02607 50.47665 110.54309 L 50.251857 110.98647 L 49.150632 112.16418 L 48.049408 113.34136 L 47.573985 112.7476 C 47.31252 112.42108 46.9897 111.99075 46.856716 111.79159 C 46.60184 111.40989 45.07378 109.89205 43.918394 108.8729 C 43.115972 108.1651 42.571948 107.86237 41.86994 107.73395 L 41.361444 107.64094 L 40.128444 107.72052 L 38.895445 107.8001 L 38.455678 107.9944 C 37.297173 108.50687 35.998279 110.13648 35.643963 111.52184 L 35.46723 112.21275 L 35.065704 112.65924 C 34.844817 112.90491 34.4754 113.3905 34.244566 113.73772 L 33.824436 114.36869 L 33.68491 114.15475 C 33.60814 114.037 33.373977 113.73932 33.164528 113.49329 C 32.955079 113.24726 32.680263 112.82525 32.553713 112.55537 C 32.427163 112.28549 32.228005 111.86382 32.111362 111.61847 C 31.877871 111.12735 30.871216 109.4695 30.522829 109.00261 C 30.401325 108.83977 29.92761 108.38395 29.47018 107.98924 L 28.638706 107.27145 L 28.164833 107.04976 L 27.691477 106.82755 L 27.183498 106.78363 L 26.676035 106.74022 z M 59.43941 125.04349 L 59.316937 125.14478 C 59.24984 125.20046 59.194981 125.30049 59.194981 125.36699 C 59.194981 125.43346 59.094141 125.55377 58.970705 125.63467 L 58.746429 125.78195 L 58.408465 125.54734 L 58.070501 125.31324 L 57.71135 125.31324 L 57.352716 125.31324 L 57.14756 125.53183 L 56.942405 125.75043 L 56.995115 125.88892 C 57.066358 126.07454 57.172212 126.06291 57.366152 125.84861 L 57.527899 125.67033 L 57.724786 125.67033 C 57.833237 125.67033 58.018074 125.74438 58.135097 125.83518 C 58.25212 125.92599 58.407729 126.02318 58.481329 126.05118 C 58.554933 126.07918 58.702317 126.10506 58.808958 126.10906 L 59.003261 126.1163 L 59.273012 125.88944 C 59.421361 125.76461 59.56788 125.58208 59.59909 125.48378 L 59.655934 125.30498 L 59.547414 125.17423 L 59.43941 125.04349 z M 59.555682 126.38398 L 59.379466 126.72918 L 59.203249 127.07489 L 59.028583 127.12037 C 58.851538 127.16667 58.701334 127.10245 58.263255 126.79274 L 58.021409 126.62169 L 57.767678 126.62169 C 57.485069 126.62169 57.071801 126.85746 56.992531 127.06404 L 56.940855 127.19892 L 57.035939 127.29348 L 57.130507 127.38805 L 57.371836 127.1984 C 57.690969 126.94742 57.825329 126.9596 58.303045 127.2847 L 58.704571 127.55807 L 59.002228 127.51053 C 59.592202 127.4165 60.215517 126.38398 59.682289 126.38398 L 59.555682 126.38398 z "
     transform="translate(-20.449542,-0.01288133)" /></svg>
